<?xml version="1.0" standalone="no"?><!DOCTYPE svg PUBLIC "-//W3C//DTD SVG 1.1//EN" "http://www.w3.org/Graphics/SVG/1.1/DTD/svg11.dtd"><svg t="1588131574640" class="icon" viewBox="0 0 1024 1024" version="1.1" xmlns="http://www.w3.org/2000/svg" p-id="16762" xmlns:xlink="http://www.w3.org/1999/xlink" width="64" height="64"><defs><style type="text/css"></style></defs><path d="M865.621333 667.306667c-37.888-71.338667-89.429333-130.389333-150.528-173.056 50.858667-52.906667 78.848-121.856 78.848-195.242667 0-75.434667-29.354667-146.090667-82.602666-199.338667C658.090667 46.421333 587.434667 17.066667 512 17.066667s-146.090667 29.354667-199.338667 82.602666C259.413333 152.917333 230.058667 223.573333 230.058667 299.008c0 73.386667 27.989333 142.677333 78.848 195.242667-61.098667 42.666667-112.64 102.058667-150.528 173.056-44.032 82.944-67.242667 178.517333-67.242667 276.821333 0 13.653333 0.341333 27.306667 1.365333 40.618667 0.682667 12.629333 11.264 22.186667 23.552 22.186666h1.706667c12.970667-0.682667 22.869333-11.946667 21.845333-24.917333-0.682667-12.288-1.365333-24.917333-1.365333-37.546667 0-175.786667 78.848-334.165333 206.848-417.792 48.128 35.498667 105.813333 54.613333 166.570667 54.613334 60.757333 0 118.442667-19.114667 166.570666-54.613334 128 83.626667 206.848 242.005333 206.848 417.792 0 12.629333-0.341333 25.258667-1.365333 37.546667-0.682667 12.970667 8.874667 24.234667 21.845333 24.917333h1.706667c12.288 0 22.528-9.557333 23.552-22.186666 1.024-13.312 1.365333-26.965333 1.365333-40.618667 0.682667-97.962667-22.528-193.877333-66.56-276.821333zM277.162667 299.008c0-129.365333 105.472-234.837333 234.837333-234.837333s234.837333 105.472 234.837333 234.837333-105.472 234.837333-234.837333 234.837333-234.837333-105.472-234.837333-234.837333z" p-id="16763" fill="#c5493d"></path></svg>