<?xml version="1.0" standalone="no"?><!DOCTYPE svg PUBLIC "-//W3C//DTD SVG 1.1//EN" "http://www.w3.org/Graphics/SVG/1.1/DTD/svg11.dtd"><svg t="1587620814557" class="icon" viewBox="0 0 1024 1024" version="1.1" xmlns="http://www.w3.org/2000/svg" p-id="9062" xmlns:xlink="http://www.w3.org/1999/xlink" width="64" height="64"><defs><style type="text/css"></style></defs><path d="M739.4304 640.3072c-9.9328 13.1072-7.4752 32.0512 5.5296 42.1888 96.1536 74.8544 151.2448 188.3136 151.2448 311.296 0 16.6912 13.4144 30.208 29.7984 30.208 16.384 0 29.7984-13.5168 29.7984-30.208 0-142.0288-63.5904-272.896-174.4896-359.1168C768.6144 624.7424 749.056 627.4048 739.4304 640.3072L739.4304 640.3072 739.4304 640.3072zM97.9968 1024c16.384 0 29.7984-13.5168 29.7984-30.208 0-215.8592 172.3392-391.3728 384.2048-391.3728 163.2256 0 295.936-135.0656 295.936-301.1584C807.936 135.168 675.2256 0 512 0 348.7744 0 216.064 135.168 216.064 301.2608c0 109.9776 60.3136 211.8656 154.9312 264.3968C191.8976 626.9952 68.1984 800.5632 68.1984 993.792 68.1984 1010.4832 81.6128 1024 97.9968 1024L97.9968 1024 97.9968 1024zM512 60.5184c130.3552 0 236.3392 108.032 236.3392 240.7424S642.3552 542.0032 512 542.0032c-130.2528 0-236.2368-108.032-236.2368-240.7424S381.7472 60.5184 512 60.5184L512 60.5184 512 60.5184zM512 60.5184" p-id="9063"></path></svg>