<?xml version="1.0" standalone="no"?><!DOCTYPE svg PUBLIC "-//W3C//DTD SVG 1.1//EN" "http://www.w3.org/Graphics/SVG/1.1/DTD/svg11.dtd"><svg t="1587620671066" class="icon" viewBox="0 0 1024 1024" version="1.1" xmlns="http://www.w3.org/2000/svg" p-id="6214" xmlns:xlink="http://www.w3.org/1999/xlink" width="64" height="64"><defs><style type="text/css"></style></defs><path d="M883.2 105.984h-742.4C72.192 105.984 16.384 161.792 16.384 230.4v563.2c0 68.608 55.808 124.416 124.416 124.416h742.4c68.608 0 124.416-55.808 124.416-124.416V230.4c0-68.608-55.808-124.416-124.416-124.416zM163.328 867.84h-22.528c-40.96 0-74.24-33.28-74.24-74.24v-62.976h96.768v137.216z m0-186.368H66.56V537.6h96.768v143.872z m0-194.56H66.56V365.056h96.768v121.856z m0-171.008H66.56V230.4c0-40.96 33.28-74.24 74.24-74.24h22.528v159.744z m647.168 551.936H213.504v-711.68h596.992v711.68zM957.44 793.6c0 40.96-33.28 74.24-74.24 74.24h-23.552v-137.728H957.44V793.6z m0-112.128h-97.792V537.6H957.44v143.872z m0-194.56h-97.792V365.056H957.44v121.856z m0-171.008h-96.768V156.16h22.528c40.96 0 74.24 33.28 74.24 74.24v85.504z" p-id="6215"></path><path d="M401.92 669.184c4.096 2.048 8.192 3.072 12.8 3.072 4.096 0 9.216-1.024 12.8-3.072l234.496-136.192c7.168-3.584 12.288-12.288 12.288-20.992 0-8.704-4.608-16.384-12.8-20.992L427.52 356.352c-4.096-2.048-8.192-3.072-12.8-3.072s-8.704 1.024-12.8 3.072c-7.168 3.584-12.288 12.288-12.288 20.992v270.336c0 8.704 4.608 16.384 12.288 21.504zM439.808 419.84l158.72 92.16-158.72 92.16V419.84z" p-id="6216"></path></svg>