<?xml version="1.0" standalone="no"?><!DOCTYPE svg PUBLIC "-//W3C//DTD SVG 1.1//EN" "http://www.w3.org/Graphics/SVG/1.1/DTD/svg11.dtd"><svg t="1588131347783" class="icon" viewBox="0 0 1251 1024" version="1.1" xmlns="http://www.w3.org/2000/svg" p-id="13692" xmlns:xlink="http://www.w3.org/1999/xlink" width="78.1875" height="64"><defs><style type="text/css"></style></defs><path d="M1092.649103 1021.919756H156.539403a156.018283 156.018283 0 0 1-156.018283-156.018283V156.018283a156.018283 156.018283 0 0 1 156.018283-156.018283h936.1097a156.018283 156.018283 0 0 1 156.018284 156.018283v711.963434a156.018283 156.018283 0 0 1-156.018284 156.018283zM156.539403 55.646521A98.811579 98.811579 0 0 0 56.167641 156.018283v711.963434A98.811579 98.811579 0 0 0 156.539403 966.793296h936.1097a98.811579 98.811579 0 0 0 98.291519-98.811579V156.018283A98.291519 98.291519 0 0 0 1092.649103 55.646521z" fill="#c5493d" p-id="13693"></path><path d="M214.266168 1021.919756a27.56323 27.56323 0 0 1-27.56323-27.56323V28.083291a28.083291 28.083291 0 0 1 55.646521 0v966.273235a28.083291 28.083291 0 0 1-28.083291 27.56323z m820.13611 0a27.56323 27.56323 0 0 1-27.563231-27.56323V28.083291a27.56323 27.56323 0 1 1 55.126461 0v966.273235a27.56323 27.56323 0 0 1-27.56323 27.56323z" fill="#c5493d" p-id="13694"></path><path d="M214.266168 320.877603H28.08435a28.083291 28.083291 0 0 1 0-55.646521h186.181818a28.083291 28.083291 0 1 1 0 55.646521z m0 217.905536H28.08435a28.083291 28.083291 0 0 1 0-55.646521h186.181818a28.083291 28.083291 0 1 1 0 55.646521z m0 245.468766H28.08435a28.083291 28.083291 0 0 1 0-56.166583h186.181818a28.083291 28.083291 0 1 1 0 55.646522zM1220.584096 320.877603h-186.181818a28.083291 28.083291 0 0 1 0-55.646521h186.181818a28.083291 28.083291 0 0 1 0 55.646521z m0 217.905536h-186.181818a28.083291 28.083291 0 0 1 0-55.646521h186.181818a28.083291 28.083291 0 0 1 0 55.646521z m0 245.468766h-186.181818a28.083291 28.083291 0 0 1 0-55.646522h186.181818a28.083291 28.083291 0 0 1 0 55.646522zM501.85987 709.883189a26.003047 26.003047 0 0 1-14.041645-3.640426 27.043169 27.043169 0 0 1-14.041646-23.922804V340.119858a27.56323 27.56323 0 0 1 14.041646-24.442865 26.523108 26.523108 0 0 1 27.56323 0l296.434738 171.100051a28.603352 28.603352 0 0 1 14.041646 24.442865 27.043169 27.043169 0 0 1-14.041646 23.922803l-296.434738 171.100051a24.962925 24.962925 0 0 1-13.521585 3.640426z m27.56323-321.917724v246.508887l213.224988-123.254443z" fill="#c5493d" p-id="13695"></path></svg>